<?xml version="1.0" encoding="UTF-8" standalone="no"?>
<!DOCTYPE svg PUBLIC "-//W3C//DTD SVG 1.1//EN" "http://www.w3.org/Graphics/SVG/1.1/DTD/svg11.dtd">
<svg width="100%" height="100%" viewBox="0 0 16 16" version="1.1" xmlns="http://www.w3.org/2000/svg" xmlns:xlink="http://www.w3.org/1999/xlink" xml:space="preserve" xmlns:serif="http://www.serif.com/" style="fill-rule:evenodd;clip-rule:evenodd;stroke-linejoin:round;stroke-miterlimit:2;">
    <g transform="matrix(0.0268456,0,0,0.0288809,-10.1208,-43.1191)">
        <rect id="Artboard1" x="377" y="1493" width="596" height="554" style="fill:none;"/>
        <g transform="matrix(35.0589,0,0,34.625,412.059,1493)">
            <g id="Artboard11" serif:id="Artboard1">
                <path d="M16,1.864C16,1.37 15.791,0.896 15.42,0.546C15.049,0.197 14.545,0 14.02,0C10.748,0 4.252,0 0.98,0C0.455,0 -0.049,0.197 -0.42,0.546C-0.791,0.896 -1,1.37 -1,1.864C-1,4.943 -1,11.057 -1,14.136C-1,14.631 -0.791,15.105 -0.42,15.454C-0.049,15.804 0.455,16 0.98,16C4.252,16 10.748,16 14.02,16C14.545,16 15.049,15.804 15.42,15.454C15.791,15.105 16,14.631 16,14.136C16,11.057 16,4.943 16,1.864Z" style="fill:white;"/>
            </g>
        </g>
        <g transform="matrix(6.53391,0,0,6.07345,341.771,1496.71)">
            <circle cx="61" cy="48" r="4"/>
        </g>
        <g transform="matrix(6.53391,0,0,6.07345,341.771,1496.71)">
            <circle cx="41" cy="48" r="4"/>
        </g>
        <g transform="matrix(45.8592,0,0,42.6274,308.128,1459.5)">
            <path d="M10.475,11.131L5.525,11.131C4.509,11.131 3.673,10.295 3.673,9.279C3.673,5.616 4.176,4.478 4.614,3.893C4.943,3.453 5.547,3.31 6.038,3.557C6.411,3.749 6.753,3.997 7.051,4.292C7.683,4.108 8.351,4.095 8.988,4.254C9.277,3.976 9.605,3.741 9.962,3.557C10.453,3.31 11.057,3.453 11.386,3.893C11.824,4.478 12.327,5.616 12.327,9.279C12.327,10.295 11.491,11.131 10.475,11.131ZM10.526,4.65C10.276,4.799 9.731,5.176 9.515,5.717C8.652,5.149 7.528,5.149 6.665,5.717C6.38,5.005 5.525,4.577 5.525,4.577C5.353,4.808 4.813,5.575 4.813,9.279C4.813,9.67 5.135,9.992 5.525,9.992L10.475,9.992C10.865,9.992 11.187,9.67 11.187,9.279C11.187,5.89 10.735,4.96 10.526,4.65Z"/>
        </g>
    </g>
</svg>
