<?xml version="1.0" encoding="UTF-8" standalone="no"?><!DOCTYPE svg PUBLIC "-//W3C//DTD SVG 1.1//EN" "http://www.w3.org/Graphics/SVG/1.1/DTD/svg11.dtd"><svg width="100%" height="100%" viewBox="0 0 1251 450" version="1.1" xmlns="http://www.w3.org/2000/svg" xmlns:xlink="http://www.w3.org/1999/xlink" xml:space="preserve" xmlns:serif="http://www.serif.com/" style="fill-rule:evenodd;clip-rule:evenodd;stroke-linejoin:round;stroke-miterlimit:2;"><path d="M163.742,233.236l-120.956,-0c-11.348,-0 -22.23,-4.508 -30.254,-12.532c-8.024,-8.024 -12.532,-18.907 -12.532,-30.254l0,-147.664c-0,-11.348 4.508,-22.23 12.532,-30.254c8.024,-8.024 18.906,-12.532 30.254,-12.532l147.664,0c11.347,-0 22.23,4.508 30.254,12.532c1.307,1.307 2.521,2.69 3.638,4.139c1.116,-1.449 2.33,-2.832 3.638,-4.139c8.023,-8.024 18.906,-12.532 30.254,-12.532l147.663,0c11.348,-0 22.231,4.508 30.255,12.532c1.307,1.307 2.521,2.69 3.637,4.139c1.117,-1.449 2.331,-2.832 3.638,-4.139c8.024,-8.024 18.907,-12.532 30.255,-12.532l147.663,0c11.348,-0 22.231,4.508 30.254,12.532c1.308,1.307 2.522,2.69 3.638,4.139c1.117,-1.449 2.331,-2.832 3.638,-4.139c8.024,-8.024 18.907,-12.532 30.254,-12.532l147.664,0c11.348,-0 22.23,4.508 30.254,12.532c8.024,8.024 12.532,18.906 12.532,30.254l-0,147.664c-0,9.19 -2.957,18.076 -8.344,25.385l120.956,-0c11.348,-0 22.23,4.507 30.254,12.531c1.308,1.308 2.522,2.691 3.638,4.14c1.117,-1.449 2.331,-2.832 3.638,-4.14c8.024,-8.024 18.907,-12.531 30.254,-12.531l147.664,-0c11.347,-0 22.23,4.507 30.254,12.531c8.024,8.024 12.532,18.907 12.532,30.255l-0,147.663c-0,11.348 -4.508,22.231 -12.532,30.254c-8.024,8.024 -18.907,12.532 -30.254,12.532l-147.664,0c-11.347,0 -22.23,-4.508 -30.254,-12.532c-1.307,-1.307 -2.521,-2.69 -3.638,-4.139c-1.116,1.449 -2.33,2.832 -3.638,4.139c-8.024,8.024 -18.906,12.532 -30.254,12.532l-147.664,0c-11.347,0 -22.23,-4.508 -30.254,-12.532c-1.307,-1.307 -2.521,-2.69 -3.638,-4.139c-1.116,1.449 -2.33,2.832 -3.637,4.139c-8.024,8.024 -18.907,12.532 -30.255,12.532l-147.663,0c-11.348,0 -22.231,-4.508 -30.255,-12.532c-1.307,-1.307 -2.521,-2.69 -3.637,-4.139c-1.117,1.449 -2.331,2.832 -3.638,4.139c-8.024,8.024 -18.907,12.532 -30.254,12.532l-147.664,0c-11.348,0 -22.23,-4.508 -30.254,-12.532c-1.308,-1.307 -2.522,-2.69 -3.638,-4.139c-1.117,1.449 -2.331,2.832 -3.638,4.139c-8.024,8.024 -18.907,12.532 -30.254,12.532l-147.664,0c-11.347,0 -22.23,-4.508 -30.254,-12.532c-8.024,-8.023 -12.532,-18.906 -12.532,-30.254l0,-147.663c0,-9.191 2.957,-18.077 8.344,-25.385Z" style="fill:#fff;"/><path d="M210.799,42.786c0,-5.397 -2.144,-10.573 -5.96,-14.389c-3.816,-3.817 -8.992,-5.961 -14.389,-5.961l-147.664,0c-5.397,0 -10.573,2.144 -14.389,5.961c-3.817,3.816 -5.961,8.992 -5.961,14.389l0,147.664c0,5.397 2.144,10.573 5.961,14.389c3.816,3.816 8.992,5.96 14.389,5.96l147.664,0c5.397,0 10.573,-2.144 14.389,-5.96c3.816,-3.816 5.96,-8.992 5.96,-14.389l0,-147.664Z"/><path d="M426.247,42.786c0,-5.397 -2.144,-10.573 -5.96,-14.389c-3.817,-3.817 -8.993,-5.961 -14.39,-5.961l-147.663,0c-5.397,0 -10.573,2.144 -14.39,5.961c-3.816,3.816 -5.96,8.992 -5.96,14.389l0,147.664c0,5.397 2.144,10.573 5.96,14.389c3.817,3.816 8.993,5.96 14.39,5.96l147.663,0c5.397,0 10.573,-2.144 14.39,-5.96c3.816,-3.816 5.96,-8.992 5.96,-14.389l0,-147.664Z"/><path d="M641.695,42.786c-0,-5.397 -2.144,-10.573 -5.96,-14.389c-3.817,-3.817 -8.993,-5.961 -14.39,-5.961l-147.663,0c-5.397,0 -10.574,2.144 -14.39,5.961c-3.816,3.816 -5.96,8.992 -5.96,14.389l-0,147.664c-0,5.397 2.144,10.573 5.96,14.389c3.816,3.816 8.993,5.96 14.39,5.96l147.663,0c5.397,0 10.573,-2.144 14.39,-5.96c3.816,-3.816 5.96,-8.992 5.96,-14.389l-0,-147.664Z"/><path d="M857.143,42.786c-0,-5.397 -2.144,-10.573 -5.961,-14.389c-3.816,-3.817 -8.992,-5.961 -14.389,-5.961l-147.664,0c-5.397,0 -10.573,2.144 -14.389,5.961c-3.816,3.816 -5.96,8.992 -5.96,14.389l-0,147.664c-0,5.397 2.144,10.573 5.96,14.389c3.816,3.816 8.992,5.96 14.389,5.96l147.664,0c5.397,0 10.573,-2.144 14.389,-5.96c3.817,-3.816 5.961,-8.992 5.961,-14.389l-0,-147.664Z"/><g><path d="M366.197,258.621c0,-5.398 -2.144,-10.574 -5.96,-14.39c-3.816,-3.816 -8.992,-5.96 -14.389,-5.96l-147.664,-0c-5.397,-0 -10.573,2.144 -14.389,5.96c-3.817,3.816 -5.961,8.992 -5.961,14.39l0,147.663c0,5.397 2.144,10.573 5.961,14.39c3.816,3.816 8.992,5.96 14.389,5.96l147.664,-0c5.397,-0 10.573,-2.144 14.389,-5.96c3.816,-3.817 5.96,-8.993 5.96,-14.39l0,-147.663Z" style="fill:#fff;"/><path d="M366.197,258.621l0,147.663c0,5.397 -2.144,10.573 -5.96,14.39c-3.816,3.816 -8.992,5.96 -14.389,5.96l-147.664,-0c-5.397,-0 -10.573,-2.144 -14.389,-5.96c-3.817,-3.817 -5.961,-8.993 -5.961,-14.39l0,-147.663c0,-5.398 2.144,-10.574 5.961,-14.39c3.816,-3.816 8.992,-5.96 14.389,-5.96l147.664,-0c5.397,-0 10.573,2.144 14.389,5.96c3.816,3.816 5.96,8.992 5.96,14.39Zm-8.333,-0c0,-3.187 -1.266,-6.244 -3.519,-8.497c-2.254,-2.254 -5.31,-3.52 -8.497,-3.52l-147.664,0c-3.187,0 -6.243,1.266 -8.497,3.52c-2.253,2.253 -3.519,5.31 -3.519,8.497l-0,147.663c-0,3.187 1.266,6.244 3.519,8.497c2.254,2.254 5.31,3.52 8.497,3.52l147.664,-0c3.187,-0 6.243,-1.266 8.497,-3.52c2.253,-2.253 3.519,-5.31 3.519,-8.497l0,-147.663Z"/><path d="M581.645,258.621c0,-5.398 -2.144,-10.574 -5.96,-14.39c-3.816,-3.816 -8.992,-5.96 -14.389,-5.96l-147.664,-0c-5.397,-0 -10.573,2.144 -14.389,5.96c-3.817,3.816 -5.961,8.992 -5.961,14.39l0,147.663c0,5.397 2.144,10.573 5.961,14.39c3.816,3.816 8.992,5.96 14.389,5.96l147.664,-0c5.397,-0 10.573,-2.144 14.389,-5.96c3.816,-3.817 5.96,-8.993 5.96,-14.39l0,-147.663Z" style="fill:#fff;"/><clipPath id="_clip1"><path d="M581.645,258.621c0,-5.398 -2.144,-10.574 -5.96,-14.39c-3.816,-3.816 -8.992,-5.96 -14.389,-5.96l-147.664,-0c-5.397,-0 -10.573,2.144 -14.389,5.96c-3.817,3.816 -5.961,8.992 -5.961,14.39l0,147.663c0,5.397 2.144,10.573 5.961,14.39c3.816,3.816 8.992,5.96 14.389,5.96l147.664,-0c5.397,-0 10.573,-2.144 14.389,-5.96c3.816,-3.817 5.96,-8.993 5.96,-14.39l0,-147.663Z"/></clipPath><g clip-path="url(#_clip1)"><path d="M621.634,250.797l0,90.897c0,8.155 -3.239,15.975 -9.006,21.742c-5.766,5.766 -13.586,9.005 -21.741,9.005l-90.897,0c-8.154,0 -15.975,-3.239 -21.741,-9.005c-5.767,-5.767 -9.006,-13.587 -9.006,-21.742l-0,-90.897c-0,-8.154 3.239,-15.975 9.006,-21.741c5.766,-5.766 13.587,-9.006 21.741,-9.006l90.897,0c8.155,0 15.975,3.24 21.741,9.006c5.767,5.766 9.006,13.587 9.006,21.741Z" style="fill:#fff;"/><path d="M754.256,250.797l0,90.897c0,8.155 -3.239,15.975 -9.005,21.742c-5.767,5.766 -13.587,9.005 -21.742,9.005l-90.897,0c-8.154,0 -15.975,-3.239 -21.741,-9.005c-5.767,-5.767 -9.006,-13.587 -9.006,-21.742l0,-90.897c0,-8.154 3.239,-15.975 9.006,-21.741c5.766,-5.766 13.587,-9.006 21.741,-9.006l90.897,0c8.155,0 15.975,3.24 21.742,9.006c5.766,5.766 9.005,13.587 9.005,21.741Z" style="fill:#fff;"/><path d="M886.878,250.797l0,90.897c0,8.155 -3.239,15.975 -9.005,21.742c-5.766,5.766 -13.587,9.005 -21.742,9.005l-90.896,0c-8.155,0 -15.976,-3.239 -21.742,-9.005c-5.766,-5.767 -9.006,-13.587 -9.006,-21.742l0,-90.897c0,-8.154 3.24,-15.975 9.006,-21.741c5.766,-5.766 13.587,-9.006 21.742,-9.006l90.896,0c8.155,0 15.976,3.24 21.742,9.006c5.766,5.766 9.005,13.587 9.005,21.741Z" style="fill:#fff;"/><path d="M1019.5,250.797l-0,90.897c-0,8.155 -3.24,15.975 -9.006,21.742c-5.766,5.766 -13.587,9.005 -21.742,9.005l-90.896,0c-8.155,0 -15.976,-3.239 -21.742,-9.005c-5.766,-5.767 -9.006,-13.587 -9.006,-21.742l0,-90.897c0,-8.154 3.24,-15.975 9.006,-21.741c5.766,-5.766 13.587,-9.006 21.742,-9.006l90.896,0c8.155,0 15.976,3.24 21.742,9.006c5.766,5.766 9.006,13.587 9.006,21.741Z" style="fill:#fff;"/><g><path d="M746.892,383.658l-0,90.896c-0,16.005 -6.358,31.355 -17.675,42.672c-11.318,11.318 -26.667,17.676 -42.673,17.676l-90.896,-0c-16.005,-0 -31.355,-6.358 -42.672,-17.676c-11.318,-11.317 -17.676,-26.667 -17.676,-42.672l0,-90.896c0,-16.005 6.358,-31.355 17.676,-42.672c11.317,-11.318 26.667,-17.676 42.672,-17.676l90.896,0c16.006,0 31.355,6.358 42.673,17.676c11.317,11.317 17.675,26.667 17.675,42.672Z" style="fill:#fff;"/><path d="M879.514,383.658l0,90.896c0,16.005 -6.358,31.355 -17.675,42.672c-11.318,11.318 -26.667,17.676 -42.672,17.676l-90.897,-0c-16.005,-0 -31.355,-6.358 -42.672,-17.676c-11.317,-11.317 -17.675,-26.667 -17.675,-42.672l-0,-90.896c-0,-16.005 6.358,-31.355 17.675,-42.672c11.317,-11.318 26.667,-17.676 42.672,-17.676l90.897,0c16.005,0 31.354,6.358 42.672,17.676c11.317,11.317 17.675,26.667 17.675,42.672Z" style="fill:#fff;"/><path d="M1012.14,383.658l0,90.896c0,16.005 -6.358,31.355 -17.675,42.672c-11.317,11.318 -26.667,17.676 -42.672,17.676l-90.897,-0c-16.005,-0 -31.355,-6.358 -42.672,-17.676c-11.317,-11.317 -17.675,-26.667 -17.675,-42.672l-0,-90.896c-0,-16.005 6.358,-31.355 17.675,-42.672c11.317,-11.318 26.667,-17.676 42.672,-17.676l90.897,0c16.005,0 31.355,6.358 42.672,17.676c11.317,11.317 17.675,26.667 17.675,42.672Z" style="fill:#fff;"/><path d="M1144.76,383.658l0,90.896c0,16.005 -6.358,31.355 -17.675,42.672c-11.317,11.318 -26.667,17.676 -42.672,17.676l-90.897,-0c-16.005,-0 -31.354,-6.358 -42.672,-17.676c-11.317,-11.317 -17.675,-26.667 -17.675,-42.672l-0,-90.896c-0,-16.005 6.358,-31.355 17.675,-42.672c11.318,-11.318 26.667,-17.676 42.672,-17.676l90.897,0c16.005,0 31.355,6.358 42.672,17.676c11.317,11.317 17.675,26.667 17.675,42.672Z" style="fill:#fff;"/><path d="M1277.38,383.658l-0,90.896c-0,16.005 -6.358,31.355 -17.676,42.672c-11.317,11.318 -26.667,17.676 -42.672,17.676l-90.896,-0c-16.006,-0 -31.355,-6.358 -42.673,-17.676c-11.317,-11.317 -17.675,-26.667 -17.675,-42.672l0,-90.896c0,-16.005 6.358,-31.355 17.675,-42.672c11.318,-11.318 26.667,-17.676 42.672,-17.676l90.897,0c16.005,0 31.355,6.358 42.672,17.676c11.318,11.317 17.676,26.667 17.676,42.672Z" style="fill:#fff;"/></g></g><path d="M581.645,258.621l0,147.663c0,5.397 -2.144,10.573 -5.96,14.39c-3.816,3.816 -8.992,5.96 -14.389,5.96l-147.664,-0c-5.397,-0 -10.573,-2.144 -14.389,-5.96c-3.817,-3.817 -5.961,-8.993 -5.961,-14.39l0,-147.663c0,-5.398 2.144,-10.574 5.961,-14.39c3.816,-3.816 8.992,-5.96 14.389,-5.96l147.664,-0c5.397,-0 10.573,2.144 14.389,5.96c3.816,3.816 5.96,8.992 5.96,14.39Zm-8.333,-0c-0,-3.187 -1.266,-6.244 -3.52,-8.497c-2.253,-2.254 -5.31,-3.52 -8.496,-3.52l-147.664,0c-3.187,0 -6.243,1.266 -8.497,3.52c-2.253,2.253 -3.519,5.31 -3.519,8.497l-0,147.663c-0,3.187 1.266,6.244 3.519,8.497c2.254,2.254 5.31,3.52 8.497,3.52l147.664,-0c3.186,-0 6.243,-1.266 8.496,-3.52c2.254,-2.253 3.52,-5.31 3.52,-8.497l-0,-147.663Z"/><path d="M797.093,258.621c-0,-5.398 -2.144,-10.574 -5.96,-14.39c-3.817,-3.816 -8.993,-5.96 -14.39,-5.96l-147.663,-0c-5.397,-0 -10.573,2.144 -14.39,5.96c-3.816,3.816 -5.96,8.992 -5.96,14.39l0,147.663c0,5.397 2.144,10.573 5.96,14.39c3.817,3.816 8.993,5.96 14.39,5.96l147.663,-0c5.397,-0 10.573,-2.144 14.39,-5.96c3.816,-3.817 5.96,-8.993 5.96,-14.39l-0,-147.663Z" style="fill:#fff;"/><path d="M797.093,258.621l-0,147.663c-0,5.397 -2.144,10.573 -5.96,14.39c-3.817,3.816 -8.993,5.96 -14.39,5.96l-147.663,-0c-5.397,-0 -10.573,-2.144 -14.39,-5.96c-3.816,-3.817 -5.96,-8.993 -5.96,-14.39l0,-147.663c0,-5.398 2.144,-10.574 5.96,-14.39c3.817,-3.816 8.993,-5.96 14.39,-5.96l147.663,-0c5.397,-0 10.573,2.144 14.39,5.96c3.816,3.816 5.96,8.992 5.96,14.39Zm-8.333,-0c-0,-3.187 -1.266,-6.244 -3.52,-8.497c-2.253,-2.254 -5.31,-3.52 -8.497,-3.52l-147.663,0c-3.187,0 -6.244,1.266 -8.497,3.52c-2.254,2.253 -3.52,5.31 -3.52,8.497l0,147.663c0,3.187 1.266,6.244 3.52,8.497c2.253,2.254 5.31,3.52 8.497,3.52l147.663,-0c3.187,-0 6.244,-1.266 8.497,-3.52c2.254,-2.253 3.52,-5.31 3.52,-8.497l-0,-147.663Z"/><path d="M1012.54,258.621c-0,-5.398 -2.144,-10.574 -5.961,-14.39c-3.816,-3.816 -8.992,-5.96 -14.389,-5.96l-147.664,-0c-5.397,-0 -10.573,2.144 -14.389,5.96c-3.816,3.816 -5.96,8.992 -5.96,14.39l-0,147.663c-0,5.397 2.144,10.573 5.96,14.39c3.816,3.816 8.992,5.96 14.389,5.96l147.664,-0c5.397,-0 10.573,-2.144 14.389,-5.96c3.817,-3.817 5.961,-8.993 5.961,-14.39l-0,-147.663Z" style="fill:#fff;"/><path d="M1012.54,258.621l-0,147.663c-0,5.397 -2.144,10.573 -5.961,14.39c-3.816,3.816 -8.992,5.96 -14.389,5.96l-147.664,-0c-5.397,-0 -10.573,-2.144 -14.389,-5.96c-3.816,-3.817 -5.96,-8.993 -5.96,-14.39l-0,-147.663c-0,-5.398 2.144,-10.574 5.96,-14.39c3.816,-3.816 8.992,-5.96 14.389,-5.96l147.664,-0c5.397,-0 10.573,2.144 14.389,5.96c3.817,3.816 5.961,8.992 5.961,14.39Zm-8.334,-0c0,-3.187 -1.266,-6.244 -3.519,-8.497c-2.254,-2.254 -5.31,-3.52 -8.497,-3.52l-147.664,0c-3.186,0 -6.243,1.266 -8.496,3.52c-2.254,2.253 -3.52,5.31 -3.52,8.497l0,147.663c0,3.187 1.266,6.244 3.52,8.497c2.253,2.254 5.31,3.52 8.496,3.52l147.664,-0c3.187,-0 6.243,-1.266 8.497,-3.52c2.253,-2.253 3.519,-5.31 3.519,-8.497l0,-147.663Z"/><path d="M1227.99,258.621c-0,-5.398 -2.144,-10.574 -5.961,-14.39c-3.816,-3.816 -8.992,-5.96 -14.389,-5.96l-147.664,-0c-5.397,-0 -10.573,2.144 -14.389,5.96c-3.816,3.816 -5.96,8.992 -5.96,14.39l-0,147.663c-0,5.397 2.144,10.573 5.96,14.39c3.816,3.816 8.992,5.96 14.389,5.96l147.664,-0c5.397,-0 10.573,-2.144 14.389,-5.96c3.817,-3.817 5.961,-8.993 5.961,-14.39l-0,-147.663Z" style="fill:#fff;"/><path d="M1227.99,258.621l-0,147.663c-0,5.397 -2.144,10.573 -5.961,14.39c-3.816,3.816 -8.992,5.96 -14.389,5.96l-147.664,-0c-5.397,-0 -10.573,-2.144 -14.389,-5.96c-3.816,-3.817 -5.96,-8.993 -5.96,-14.39l-0,-147.663c-0,-5.398 2.144,-10.574 5.96,-14.39c3.816,-3.816 8.992,-5.96 14.389,-5.96l147.664,-0c5.397,-0 10.573,2.144 14.389,5.96c3.817,3.816 5.961,8.992 5.961,14.39Zm-8.334,-0c0,-3.187 -1.266,-6.244 -3.519,-8.497c-2.254,-2.254 -5.31,-3.52 -8.497,-3.52l-147.664,0c-3.187,0 -6.243,1.266 -8.497,3.52c-2.253,2.253 -3.519,5.31 -3.519,8.497l-0,147.663c-0,3.187 1.266,6.244 3.519,8.497c2.254,2.254 5.31,3.52 8.497,3.52l147.664,-0c3.187,-0 6.243,-1.266 8.497,-3.52c2.253,-2.253 3.519,-5.31 3.519,-8.497l0,-147.663Z"/></g><path d="M91.382,130.618c-4.688,-0 -8.91,-0.803 -12.667,-2.408c-3.756,-1.606 -6.726,-3.917 -8.909,-6.935c-2.184,-3.018 -3.307,-6.582 -3.371,-10.692l14.448,0c0.192,2.761 1.172,4.944 2.937,6.55c1.766,1.605 4.19,2.408 7.273,2.408c3.146,-0 5.618,-0.755 7.416,-2.264c1.798,-1.509 2.697,-3.483 2.697,-5.923c0,-1.991 -0.61,-3.629 -1.83,-4.913c-1.22,-1.284 -2.745,-2.295 -4.575,-3.034c-1.83,-0.738 -4.35,-1.557 -7.561,-2.456c-4.367,-1.284 -7.915,-2.553 -10.644,-3.805c-2.729,-1.252 -5.073,-3.146 -7.031,-5.683c-1.959,-2.536 -2.938,-5.923 -2.938,-10.162c0,-3.981 0.995,-7.448 2.986,-10.402c1.991,-2.954 4.784,-5.218 8.38,-6.791c3.596,-1.573 7.706,-2.36 12.329,-2.36c6.935,0 12.57,1.686 16.904,5.057c4.335,3.371 6.727,8.075 7.176,14.111l-14.833,0c-0.128,-2.312 -1.108,-4.222 -2.938,-5.731c-1.83,-1.509 -4.254,-2.264 -7.272,-2.264c-2.633,0 -4.736,0.675 -6.309,2.023c-1.573,1.349 -2.36,3.307 -2.36,5.876c0,1.798 0.594,3.291 1.782,4.479c1.188,1.188 2.665,2.151 4.431,2.889c1.766,0.739 4.254,1.59 7.465,2.553c4.366,1.284 7.93,2.568 10.691,3.853c2.761,1.284 5.137,3.21 7.128,5.779c1.991,2.569 2.986,5.94 2.986,10.114c-0,3.596 -0.931,6.935 -2.793,10.017c-1.863,3.082 -4.592,5.539 -8.188,7.369c-3.596,1.83 -7.866,2.745 -12.81,2.745Z" style="fill:#fff;fill-rule:nonzero;"/><path d="M283.96,278.546l-24.658,67.232l-16.375,0l-24.658,-67.232l14.448,-0l18.494,53.458l18.397,-53.458l14.352,-0Z" style="fill-rule:nonzero;"/><path d="M452.051,289.43l0,16.856l22.636,0l-0,10.692l-22.636,0l0,17.82l25.525,-0l0,10.98l-39.01,0l0,-67.328l39.01,-0l0,10.98l-25.525,0Z" style="fill-rule:nonzero;"/><path d="M667.499,335.086l22.154,0l0,10.692l-35.639,0l0,-67.232l13.485,-0l0,56.54Z" style="fill-rule:nonzero;"/><path d="M900.67,346.452c-6.293,0 -12.072,-1.477 -17.338,-4.43c-5.265,-2.954 -9.439,-7.048 -12.522,-12.281c-3.082,-5.234 -4.623,-11.158 -4.623,-17.772c0,-6.549 1.541,-12.441 4.623,-17.675c3.083,-5.233 7.257,-9.327 12.522,-12.28c5.266,-2.954 11.045,-4.431 17.338,-4.431c6.357,-0 12.153,1.477 17.386,4.431c5.233,2.953 9.375,7.047 12.425,12.28c3.051,5.234 4.576,11.126 4.576,17.675c-0,6.614 -1.525,12.538 -4.576,17.772c-3.05,5.233 -7.208,9.327 -12.473,12.281c-5.266,2.953 -11.045,4.43 -17.338,4.43Zm0,-12.04c4.046,0 7.609,-0.915 10.692,-2.745c3.082,-1.83 5.49,-4.447 7.224,-7.85c1.734,-3.403 2.6,-7.353 2.6,-11.848c0,-4.495 -0.866,-8.428 -2.6,-11.799c-1.734,-3.371 -4.142,-5.956 -7.224,-7.754c-3.083,-1.798 -6.646,-2.697 -10.692,-2.697c-4.045,0 -7.625,0.899 -10.74,2.697c-3.114,1.798 -5.538,4.383 -7.272,7.754c-1.734,3.371 -2.601,7.304 -2.601,11.799c0,4.495 0.867,8.445 2.601,11.848c1.734,3.403 4.158,6.02 7.272,7.85c3.115,1.83 6.695,2.745 10.74,2.745Z" style="fill-rule:nonzero;"/><path d="M1098.68,334.412l30.245,0l-0,11.366l-45.849,0l-0,-10.403l30.052,-45.463l-30.052,-0l-0,-11.366l45.849,-0l-0,10.403l-30.245,45.463Z" style="fill-rule:nonzero;"/><path d="M297.101,73.596l0,16.856l22.635,-0l0,10.692l-22.635,-0l0,17.819l25.525,-0l0,10.981l-39.01,-0l0,-67.329l39.01,0l0,10.981l-25.525,-0Z" style="fill:#fff;fill-rule:nonzero;"/><path d="M538.267,62.711l-0,47.198c-0,6.55 -1.895,11.639 -5.683,15.267c-3.789,3.628 -8.862,5.442 -15.219,5.442c-6.422,-0 -11.607,-1.862 -15.556,-5.587c-3.949,-3.724 -5.924,-8.926 -5.924,-15.604l13.485,0c0.064,2.89 0.755,5.137 2.071,6.743c1.317,1.605 3.227,2.408 5.731,2.408c2.44,-0 4.303,-0.771 5.587,-2.312c1.284,-1.541 1.926,-3.66 1.926,-6.357l0,-47.198l13.582,0Z" style="fill:#fff;fill-rule:nonzero;"/><path d="M755.737,117.133l-26.777,-0l-4.431,12.811l-14.159,-0l24.176,-67.329l15.701,0l24.176,67.329l-14.255,-0l-4.431,-12.811Zm-3.66,-10.788l-9.729,-28.126l-9.728,28.126l19.457,-0Z" style="fill:#fff;fill-rule:nonzero;"/></svg>